<?xml version="1.0" encoding="UTF-8"?>
<!DOCTYPE svg PUBLIC "-//W3C//DTD SVG 1.1//EN" "http://www.w3.org/Graphics/SVG/1.1/DTD/svg11.dtd">
<svg version="1.1" xmlns="http://www.w3.org/2000/svg" xmlns:xlink="http://www.w3.org/1999/xlink" width="300" height="200"  xml:space="preserve">
    <g id="group">
        <path id="bezier2" stroke="none" fill="rgb(193, 202, 207)" d="M 7.74,8.88 L 9.58,8.88 C 9.79,8.88 9.99,8.73 10.17,8.44 10.34,8.16 10.43,7.86 10.43,7.55 L 10.43,1.75 C 10.43,1.48 10.23,1.35 9.84,1.35 L 9.58,1.35 7.74,1.35 7.74,8.88 Z M 7.74,8.88" />
        <path id="bezier3" stroke="none" fill="rgb(193, 202, 207)" d="M 7.74,19.8 L 9.58,19.8 C 9.79,19.8 9.99,19.93 10.17,20.17 10.34,20.42 10.43,20.69 10.43,21 L 10.43,26.73 C 10.43,27.05 10.34,27.33 10.17,27.6 9.99,27.87 9.79,28 9.58,28 L 7.74,28 7.74,19.8 Z M 7.74,19.8" />
        <path id="bezier4" stroke="none" fill="rgb(193, 202, 207)" d="M 5.37,14.34 C 5.37,12.74 5.47,11.5 5.67,10.61 5.86,9.72 6.05,9.21 6.22,9.08 6.4,8.94 6.62,8.88 6.88,8.88 L 7.08,8.88 7.08,1.35 6.82,1.35 C 6.55,1.35 6.22,1.44 5.83,1.62 5.44,1.79 4.94,2.17 4.35,2.75 3.76,3.33 3.23,4.06 2.77,4.95 2.31,5.84 1.91,7.13 1.56,8.84 1.21,10.55 1.03,12.5 1.03,14.67 1.03,16.85 1.21,18.79 1.56,20.5 1.91,22.21 2.31,23.52 2.77,24.44 3.23,25.35 3.76,26.08 4.35,26.63 4.94,27.19 5.44,27.56 5.83,27.73 6.22,27.91 6.55,28 6.82,28 L 7.08,28 7.08,19.8 6.88,19.8 C 6.62,19.8 6.4,19.73 6.22,19.57 6.05,19.42 5.86,18.91 5.67,18.04 5.47,17.17 5.37,15.94 5.37,14.34 Z M 5.37,14.34" />
    </g>
    <g id="group2">
    </g>
    <g id="group3">
    </g>
    <g id="group4">
    </g>
    <g id="group5">
    </g>
    <g id="group6">
    </g>
    <g id="group7">
    </g>
    <g id="group8">
    </g>
    <g id="group9">
    </g>
    <g id="group10">
    </g>
    <g id="group11">
    </g>
    <g id="group12">
    </g>
    <g id="group13">
    </g>
    <g id="group14">
    </g>
    <g id="group15">
    </g>
    <g id="group16">
    </g>
</svg>
