<?xml version="1.0" encoding="UTF-8"?>
<!DOCTYPE svg PUBLIC "-//W3C//DTD SVG 1.1//EN" "http://www.w3.org/Graphics/SVG/1.1/DTD/svg11.dtd">
<svg version="1.1" xmlns="http://www.w3.org/2000/svg" xmlns:xlink="http://www.w3.org/1999/xlink" width="300" height="200"  xml:space="preserve">
    <path id="bezier" stroke="rgb(0, 0, 0)" stroke-opacity="0" stroke-miterlimit="4" fill="rgb(173, 207, 224)" d="M 17.47,4 L 16.01,0 14.49,4 11,4 13.79,6.28 12.92,9.98 16.01,7.98 19.1,9.98 18.23,6.28 21,4 17.47,4 Z M 6.47,4 L 5.01,0 3.49,4 0,4 2.79,6.28 1.92,9.98 5.01,7.98 8.1,9.98 7.23,6.28 10,4 6.47,4 Z M 28.47,4 L 27.01,0 25.5,4 22,4 24.79,6.28 23.92,9.98 27.01,7.98 30.1,9.98 29.23,6.28 32,4 28.47,4 Z M 54.07,4 L 50.53,4 49.08,0 47.56,4 44.07,4 46.85,6.28 45.99,9.98 49.08,7.98 52.16,9.98 51.3,6.28 54.07,4 Z M 39.47,4 L 38.01,0 36.49,4 33,4 35.79,6.28 34.92,9.98 38.01,7.98 41.1,9.98 40.23,6.28 43,4 39.47,4 Z M 39.47,4" />
</svg>
