<?xml version="1.0" encoding="UTF-8"?>
<!DOCTYPE svg PUBLIC "-//W3C//DTD SVG 1.1//EN" "http://www.w3.org/Graphics/SVG/1.1/DTD/svg11.dtd">
<svg version="1.1" xmlns="http://www.w3.org/2000/svg" xmlns:xlink="http://www.w3.org/1999/xlink" width="300" height="200"  xml:space="preserve">
    <g id="group2">
    </g>
    <g id="group3">
    </g>
    <g id="group4">
    </g>
    <g id="group5">
    </g>
    <g id="group6">
    </g>
    <g id="group7">
    </g>
    <g id="group8">
    </g>
    <g id="group9">
    </g>
    <g id="group10">
    </g>
    <g id="group11">
    </g>
    <g id="group12">
    </g>
    <g id="group13">
    </g>
    <g id="group14">
    </g>
    <g id="group15">
    </g>
    <g id="group16">
    </g>
    <path id="bezier" stroke="none" fill="rgb(193, 202, 207)" d="M 9,1 C 4.58,1 1,4.58 1,9 1,13.42 4.58,17 9,17 13.42,17 17,13.42 17,9 17,4.58 13.42,1 9,1 Z M 9,16 C 8.02,16 7.08,15.8 6.23,15.43 L 9.87,11.33 C 9.96,11.24 10,11.12 10,11 L 10,9.5 C 10,9.22 9.78,9 9.5,9 7.74,9 5.87,7.16 5.85,7.15 5.76,7.05 5.63,7 5.5,7 L 3.5,7 C 3.22,7 3,7.22 3,7.5 L 3,10.5 C 3,10.69 3.11,10.86 3.28,10.95 L 5,11.81 5,14.74 C 3.19,13.48 2,11.38 2,9 2,7.93 2.24,6.91 2.67,6 L 4.5,6 C 4.63,6 4.76,5.95 4.85,5.85 L 6.85,3.85 C 6.95,3.76 7,3.63 7,3.5 L 7,2.29 C 7.63,2.1 8.31,2 9,2 10.1,2 11.14,2.25 12.07,2.71 12,2.76 11.94,2.82 11.88,2.88 11.31,3.45 11,4.2 11,5 11,5.8 11.31,6.55 11.88,7.12 12.45,7.69 13.21,8 14,8 14.05,8 14.1,8 14.15,8 14.36,8.81 14.75,10.91 14.02,13.81 14.01,13.84 14.01,13.87 14,13.9 12.73,15.19 10.96,16 9,16 L 9,16 Z M 9,16" />
</svg>
